<?xml version="1.0" encoding="UTF-8"?>
<svg xmlns="http://www.w3.org/2000/svg" xmlns:xlink="http://www.w3.org/1999/xlink" viewBox="0 0 96 96" width="96px" height="96px">
<g id="surface30829490">
<path style=" stroke:none;fill-rule:nonzero;fill:rgb(98.039216%,98.039216%,98.039216%);fill-opacity:1;" d="M 41.601562 9.601562 C 23.964844 9.601562 9.601562 23.964844 9.601562 41.601562 C 9.601562 59.234375 23.964844 73.601562 41.601562 73.601562 C 49.269531 73.601562 56.3125 70.875 61.832031 66.355469 L 80.9375 85.460938 C 81.738281 86.296875 82.933594 86.636719 84.054688 86.34375 C 85.175781 86.050781 86.050781 85.175781 86.34375 84.054688 C 86.636719 82.933594 86.296875 81.738281 85.460938 80.9375 L 66.355469 61.832031 C 70.875 56.3125 73.601562 49.269531 73.601562 41.601562 C 73.601562 23.964844 59.234375 9.601562 41.601562 9.601562 Z M 41.601562 16 C 55.777344 16 67.199219 27.421875 67.199219 41.601562 C 67.199219 55.777344 55.777344 67.199219 41.601562 67.199219 C 27.421875 67.199219 16 55.777344 16 41.601562 C 16 27.421875 27.421875 16 41.601562 16 Z M 41.601562 16 "/>
</g>
</svg>
